#tb 0: 1/7
#media_type 0: video
#codec_id 0: rawvideo
#dimensions 0: 320x240
#sar 0: 1/1
0,          0,          0,        1,   115200, 0x3744b3ed
0,          1,          1,        1,   115200, 0x3744b3ed
0,          2,          2,        1,   115200, 0x60a58f35
0,          3,          3,        1,   115200, 0x60a58f35
0,          4,          4,        1,   115200, 0x09ffa4e1
0,          5,          5,        1,   115200, 0x09ffa4e1
0,          6,          6,        1,   115200, 0x09ffa4e1
0,          7,          7,        1,   115200, 0x33f15918
0,          8,          8,        1,   115200, 0x33f15918
0,          9,          9,        1,   115200, 0xb0dfacf8
0,         10,         10,        1,   115200, 0xb0dfacf8
